<mxfile host="app.diagrams.net" agent="Mozilla/5.0 (Windows NT 10.0; Win64; x64) AppleWebKit/537.36 (KHTML, like Gecko) Chrome/132.0.0.0 Safari/537.36 OPR/117.0.0.0" version="26.1.1">
  <diagram id="C5RBs43oDa-KdzZeNtuy" name="Page-1">
    <mxGraphModel dx="1773" dy="471" grid="1" gridSize="10" guides="1" tooltips="1" connect="1" arrows="1" fold="1" page="1" pageScale="1" pageWidth="827" pageHeight="1169" math="0" shadow="0">
      <root>
        <mxCell id="WIyWlLk6GJQsqaUBKTNV-0" />
        <mxCell id="WIyWlLk6GJQsqaUBKTNV-1" parent="WIyWlLk6GJQsqaUBKTNV-0" />
        <mxCell id="_py4UkBO7gYFsBw7f4LY-0" value="&lt;u&gt;&lt;b&gt;Id&lt;/b&gt;&lt;/u&gt;" style="ellipse;whiteSpace=wrap;html=1;" parent="WIyWlLk6GJQsqaUBKTNV-1" vertex="1">
          <mxGeometry x="-20" y="430" width="90" height="35" as="geometry" />
        </mxCell>
        <mxCell id="Ak_wFlDR8z4ldmzF6ij--53" value="Session" style="rounded=0;whiteSpace=wrap;html=1;" parent="WIyWlLk6GJQsqaUBKTNV-1" vertex="1">
          <mxGeometry x="480" y="663.75" width="140" height="57.5" as="geometry" />
        </mxCell>
        <mxCell id="nEtOkZ7gd0ag-XSUoiwr-135" value="" style="endArrow=none;html=1;rounded=0;entryX=1;entryY=0.5;entryDx=0;entryDy=0;exitX=0.5;exitY=1;exitDx=0;exitDy=0;" parent="WIyWlLk6GJQsqaUBKTNV-1" source="nEtOkZ7gd0ag-XSUoiwr-59" target="nEtOkZ7gd0ag-XSUoiwr-71" edge="1">
          <mxGeometry width="50" height="50" relative="1" as="geometry">
            <mxPoint x="165" y="1402" as="sourcePoint" />
            <mxPoint x="215" y="1352" as="targetPoint" />
          </mxGeometry>
        </mxCell>
        <mxCell id="nEtOkZ7gd0ag-XSUoiwr-0" value="Location" style="rounded=0;whiteSpace=wrap;html=1;" parent="WIyWlLk6GJQsqaUBKTNV-1" vertex="1">
          <mxGeometry x="120" y="670" width="120" height="40" as="geometry" />
        </mxCell>
        <mxCell id="nEtOkZ7gd0ag-XSUoiwr-2" value="name" style="ellipse;whiteSpace=wrap;html=1;" parent="WIyWlLk6GJQsqaUBKTNV-1" vertex="1">
          <mxGeometry x="-20" y="515" width="90" height="35" as="geometry" />
        </mxCell>
        <mxCell id="nEtOkZ7gd0ag-XSUoiwr-3" value="address" style="ellipse;whiteSpace=wrap;html=1;" parent="WIyWlLk6GJQsqaUBKTNV-1" vertex="1">
          <mxGeometry x="-20" y="660" width="90" height="35" as="geometry" />
        </mxCell>
        <mxCell id="nEtOkZ7gd0ag-XSUoiwr-4" value="city" style="ellipse;whiteSpace=wrap;html=1;" parent="WIyWlLk6GJQsqaUBKTNV-1" vertex="1">
          <mxGeometry x="-20" y="700" width="90" height="35" as="geometry" />
        </mxCell>
        <mxCell id="nEtOkZ7gd0ag-XSUoiwr-5" value="province" style="ellipse;whiteSpace=wrap;html=1;" parent="WIyWlLk6GJQsqaUBKTNV-1" vertex="1">
          <mxGeometry x="-20" y="610" width="90" height="35" as="geometry" />
        </mxCell>
        <mxCell id="nEtOkZ7gd0ag-XSUoiwr-6" value="postal code" style="ellipse;whiteSpace=wrap;html=1;" parent="WIyWlLk6GJQsqaUBKTNV-1" vertex="1">
          <mxGeometry x="-20" y="560" width="90" height="35" as="geometry" />
        </mxCell>
        <mxCell id="nEtOkZ7gd0ag-XSUoiwr-9" value="web address" style="ellipse;whiteSpace=wrap;html=1;" parent="WIyWlLk6GJQsqaUBKTNV-1" vertex="1">
          <mxGeometry x="-20" y="751.25" width="90" height="35" as="geometry" />
        </mxCell>
        <mxCell id="nEtOkZ7gd0ag-XSUoiwr-10" value="max capacity" style="ellipse;whiteSpace=wrap;html=1;" parent="WIyWlLk6GJQsqaUBKTNV-1" vertex="1">
          <mxGeometry x="-20" y="800" width="90" height="35" as="geometry" />
        </mxCell>
        <mxCell id="nEtOkZ7gd0ag-XSUoiwr-11" value="" style="endArrow=none;html=1;rounded=0;entryX=0.5;entryY=0;entryDx=0;entryDy=0;exitX=1.012;exitY=0.608;exitDx=0;exitDy=0;exitPerimeter=0;" parent="WIyWlLk6GJQsqaUBKTNV-1" source="Ak_wFlDR8z4ldmzF6ij--70" target="nEtOkZ7gd0ag-XSUoiwr-0" edge="1">
          <mxGeometry width="50" height="50" relative="1" as="geometry">
            <mxPoint x="130" y="540" as="sourcePoint" />
            <mxPoint x="180" y="490" as="targetPoint" />
          </mxGeometry>
        </mxCell>
        <mxCell id="nEtOkZ7gd0ag-XSUoiwr-12" value="" style="endArrow=none;html=1;rounded=0;entryX=1;entryY=0.5;entryDx=0;entryDy=0;exitX=0.25;exitY=0;exitDx=0;exitDy=0;" parent="WIyWlLk6GJQsqaUBKTNV-1" source="nEtOkZ7gd0ag-XSUoiwr-0" target="nEtOkZ7gd0ag-XSUoiwr-2" edge="1">
          <mxGeometry width="50" height="50" relative="1" as="geometry">
            <mxPoint x="90" y="660" as="sourcePoint" />
            <mxPoint x="140" y="610" as="targetPoint" />
          </mxGeometry>
        </mxCell>
        <mxCell id="nEtOkZ7gd0ag-XSUoiwr-13" value="" style="endArrow=none;html=1;rounded=0;entryX=1;entryY=0.5;entryDx=0;entryDy=0;exitX=0;exitY=0.25;exitDx=0;exitDy=0;" parent="WIyWlLk6GJQsqaUBKTNV-1" source="nEtOkZ7gd0ag-XSUoiwr-0" target="nEtOkZ7gd0ag-XSUoiwr-6" edge="1">
          <mxGeometry width="50" height="50" relative="1" as="geometry">
            <mxPoint x="90" y="790" as="sourcePoint" />
            <mxPoint x="140" y="740" as="targetPoint" />
          </mxGeometry>
        </mxCell>
        <mxCell id="nEtOkZ7gd0ag-XSUoiwr-14" value="" style="endArrow=none;html=1;rounded=0;entryX=1;entryY=0.5;entryDx=0;entryDy=0;exitX=0;exitY=0.5;exitDx=0;exitDy=0;" parent="WIyWlLk6GJQsqaUBKTNV-1" source="nEtOkZ7gd0ag-XSUoiwr-0" target="nEtOkZ7gd0ag-XSUoiwr-5" edge="1">
          <mxGeometry width="50" height="50" relative="1" as="geometry">
            <mxPoint x="100" y="780" as="sourcePoint" />
            <mxPoint x="150" y="730" as="targetPoint" />
          </mxGeometry>
        </mxCell>
        <mxCell id="nEtOkZ7gd0ag-XSUoiwr-15" value="" style="endArrow=none;html=1;rounded=0;entryX=1;entryY=0.5;entryDx=0;entryDy=0;exitX=0;exitY=0.5;exitDx=0;exitDy=0;" parent="WIyWlLk6GJQsqaUBKTNV-1" source="nEtOkZ7gd0ag-XSUoiwr-0" target="nEtOkZ7gd0ag-XSUoiwr-3" edge="1">
          <mxGeometry width="50" height="50" relative="1" as="geometry">
            <mxPoint x="140" y="770" as="sourcePoint" />
            <mxPoint x="190" y="720" as="targetPoint" />
          </mxGeometry>
        </mxCell>
        <mxCell id="nEtOkZ7gd0ag-XSUoiwr-16" value="" style="endArrow=none;html=1;rounded=0;entryX=0;entryY=0.5;entryDx=0;entryDy=0;exitX=1;exitY=0.5;exitDx=0;exitDy=0;" parent="WIyWlLk6GJQsqaUBKTNV-1" source="nEtOkZ7gd0ag-XSUoiwr-4" target="nEtOkZ7gd0ag-XSUoiwr-0" edge="1">
          <mxGeometry width="50" height="50" relative="1" as="geometry">
            <mxPoint x="60" y="770" as="sourcePoint" />
            <mxPoint x="110" y="720" as="targetPoint" />
          </mxGeometry>
        </mxCell>
        <mxCell id="nEtOkZ7gd0ag-XSUoiwr-20" value="" style="endArrow=none;html=1;rounded=0;entryX=0.25;entryY=1;entryDx=0;entryDy=0;exitX=1;exitY=0.5;exitDx=0;exitDy=0;" parent="WIyWlLk6GJQsqaUBKTNV-1" source="nEtOkZ7gd0ag-XSUoiwr-9" target="nEtOkZ7gd0ag-XSUoiwr-0" edge="1">
          <mxGeometry width="50" height="50" relative="1" as="geometry">
            <mxPoint x="150" y="810" as="sourcePoint" />
            <mxPoint x="200" y="760" as="targetPoint" />
          </mxGeometry>
        </mxCell>
        <mxCell id="nEtOkZ7gd0ag-XSUoiwr-21" value="" style="endArrow=none;html=1;rounded=0;entryX=0.5;entryY=1;entryDx=0;entryDy=0;exitX=1;exitY=0.5;exitDx=0;exitDy=0;" parent="WIyWlLk6GJQsqaUBKTNV-1" source="nEtOkZ7gd0ag-XSUoiwr-10" target="nEtOkZ7gd0ag-XSUoiwr-0" edge="1">
          <mxGeometry width="50" height="50" relative="1" as="geometry">
            <mxPoint x="150" y="810" as="sourcePoint" />
            <mxPoint x="200" y="760" as="targetPoint" />
          </mxGeometry>
        </mxCell>
        <mxCell id="nEtOkZ7gd0ag-XSUoiwr-23" value="Personnel" style="rounded=0;whiteSpace=wrap;html=1;" parent="WIyWlLk6GJQsqaUBKTNV-1" vertex="1">
          <mxGeometry x="470" y="380" width="120" height="40" as="geometry" />
        </mxCell>
        <mxCell id="nEtOkZ7gd0ag-XSUoiwr-24" value="first name" style="ellipse;whiteSpace=wrap;html=1;" parent="WIyWlLk6GJQsqaUBKTNV-1" vertex="1">
          <mxGeometry x="520" y="240" width="90" height="35" as="geometry" />
        </mxCell>
        <mxCell id="nEtOkZ7gd0ag-XSUoiwr-25" value="last name" style="ellipse;whiteSpace=wrap;html=1;" parent="WIyWlLk6GJQsqaUBKTNV-1" vertex="1">
          <mxGeometry x="590" y="210" width="90" height="35" as="geometry" />
        </mxCell>
        <mxCell id="nEtOkZ7gd0ag-XSUoiwr-26" value="birth date" style="ellipse;whiteSpace=wrap;html=1;" parent="WIyWlLk6GJQsqaUBKTNV-1" vertex="1">
          <mxGeometry x="620" y="250" width="90" height="35" as="geometry" />
        </mxCell>
        <mxCell id="nEtOkZ7gd0ag-XSUoiwr-27" value="SIN" style="ellipse;whiteSpace=wrap;html=1;" parent="WIyWlLk6GJQsqaUBKTNV-1" vertex="1">
          <mxGeometry x="640" y="290" width="90" height="35" as="geometry" />
        </mxCell>
        <mxCell id="nEtOkZ7gd0ag-XSUoiwr-28" value="Medicare Number" style="ellipse;whiteSpace=wrap;html=1;" parent="WIyWlLk6GJQsqaUBKTNV-1" vertex="1">
          <mxGeometry x="640" y="335" width="90" height="35" as="geometry" />
        </mxCell>
        <mxCell id="nEtOkZ7gd0ag-XSUoiwr-29" value="phone number" style="ellipse;whiteSpace=wrap;html=1;" parent="WIyWlLk6GJQsqaUBKTNV-1" vertex="1">
          <mxGeometry x="639" y="373.75" width="90" height="35" as="geometry" />
        </mxCell>
        <mxCell id="nEtOkZ7gd0ag-XSUoiwr-30" value="city" style="ellipse;whiteSpace=wrap;html=1;" parent="WIyWlLk6GJQsqaUBKTNV-1" vertex="1">
          <mxGeometry x="640" y="411.25" width="90" height="35" as="geometry" />
        </mxCell>
        <mxCell id="nEtOkZ7gd0ag-XSUoiwr-32" value="province" style="ellipse;whiteSpace=wrap;html=1;" parent="WIyWlLk6GJQsqaUBKTNV-1" vertex="1">
          <mxGeometry x="590" y="446.25" width="90" height="35" as="geometry" />
        </mxCell>
        <mxCell id="nEtOkZ7gd0ag-XSUoiwr-33" value="postal code" style="ellipse;whiteSpace=wrap;html=1;" parent="WIyWlLk6GJQsqaUBKTNV-1" vertex="1">
          <mxGeometry x="600" y="490" width="90" height="35" as="geometry" />
        </mxCell>
        <mxCell id="nEtOkZ7gd0ag-XSUoiwr-34" value="email address" style="ellipse;whiteSpace=wrap;html=1;" parent="WIyWlLk6GJQsqaUBKTNV-1" vertex="1">
          <mxGeometry x="560" y="525" width="90" height="35" as="geometry" />
        </mxCell>
        <mxCell id="nEtOkZ7gd0ag-XSUoiwr-36" value="mandate" style="ellipse;whiteSpace=wrap;html=1;" parent="WIyWlLk6GJQsqaUBKTNV-1" vertex="1">
          <mxGeometry x="494" y="495" width="90" height="35" as="geometry" />
        </mxCell>
        <mxCell id="nEtOkZ7gd0ag-XSUoiwr-37" value="" style="endArrow=none;html=1;rounded=0;" parent="WIyWlLk6GJQsqaUBKTNV-1" source="nEtOkZ7gd0ag-XSUoiwr-23" target="nEtOkZ7gd0ag-XSUoiwr-24" edge="1">
          <mxGeometry width="50" height="50" relative="1" as="geometry">
            <mxPoint x="560" y="200" as="sourcePoint" />
            <mxPoint x="610" y="150" as="targetPoint" />
          </mxGeometry>
        </mxCell>
        <mxCell id="nEtOkZ7gd0ag-XSUoiwr-38" value="" style="endArrow=none;html=1;rounded=0;" parent="WIyWlLk6GJQsqaUBKTNV-1" source="nEtOkZ7gd0ag-XSUoiwr-36" target="nEtOkZ7gd0ag-XSUoiwr-23" edge="1">
          <mxGeometry width="50" height="50" relative="1" as="geometry">
            <mxPoint x="480" y="490" as="sourcePoint" />
            <mxPoint x="530" y="440" as="targetPoint" />
          </mxGeometry>
        </mxCell>
        <mxCell id="nEtOkZ7gd0ag-XSUoiwr-39" value="" style="endArrow=none;html=1;rounded=0;" parent="WIyWlLk6GJQsqaUBKTNV-1" source="nEtOkZ7gd0ag-XSUoiwr-23" target="nEtOkZ7gd0ag-XSUoiwr-25" edge="1">
          <mxGeometry width="50" height="50" relative="1" as="geometry">
            <mxPoint x="560" y="340" as="sourcePoint" />
            <mxPoint x="610" y="290" as="targetPoint" />
          </mxGeometry>
        </mxCell>
        <mxCell id="nEtOkZ7gd0ag-XSUoiwr-41" value="" style="endArrow=none;html=1;rounded=0;" parent="WIyWlLk6GJQsqaUBKTNV-1" source="nEtOkZ7gd0ag-XSUoiwr-23" target="nEtOkZ7gd0ag-XSUoiwr-34" edge="1">
          <mxGeometry width="50" height="50" relative="1" as="geometry">
            <mxPoint x="420" y="580" as="sourcePoint" />
            <mxPoint x="470" y="530" as="targetPoint" />
          </mxGeometry>
        </mxCell>
        <mxCell id="nEtOkZ7gd0ag-XSUoiwr-42" value="" style="endArrow=none;html=1;rounded=0;" parent="WIyWlLk6GJQsqaUBKTNV-1" source="nEtOkZ7gd0ag-XSUoiwr-23" target="nEtOkZ7gd0ag-XSUoiwr-26" edge="1">
          <mxGeometry width="50" height="50" relative="1" as="geometry">
            <mxPoint x="460" y="290" as="sourcePoint" />
            <mxPoint x="510" y="240" as="targetPoint" />
          </mxGeometry>
        </mxCell>
        <mxCell id="nEtOkZ7gd0ag-XSUoiwr-43" value="" style="endArrow=none;html=1;rounded=0;entryX=0.189;entryY=0.894;entryDx=0;entryDy=0;entryPerimeter=0;" parent="WIyWlLk6GJQsqaUBKTNV-1" target="nEtOkZ7gd0ag-XSUoiwr-27" edge="1" source="nEtOkZ7gd0ag-XSUoiwr-23">
          <mxGeometry width="50" height="50" relative="1" as="geometry">
            <mxPoint x="590" y="390" as="sourcePoint" />
            <mxPoint x="510" y="330" as="targetPoint" />
          </mxGeometry>
        </mxCell>
        <mxCell id="nEtOkZ7gd0ag-XSUoiwr-44" value="" style="endArrow=none;html=1;rounded=0;exitX=0.111;exitY=0.223;exitDx=0;exitDy=0;exitPerimeter=0;" parent="WIyWlLk6GJQsqaUBKTNV-1" source="nEtOkZ7gd0ag-XSUoiwr-33" target="nEtOkZ7gd0ag-XSUoiwr-23" edge="1">
          <mxGeometry width="50" height="50" relative="1" as="geometry">
            <mxPoint x="460" y="580" as="sourcePoint" />
            <mxPoint x="590" y="430" as="targetPoint" />
          </mxGeometry>
        </mxCell>
        <mxCell id="nEtOkZ7gd0ag-XSUoiwr-45" value="" style="endArrow=none;html=1;rounded=0;" parent="WIyWlLk6GJQsqaUBKTNV-1" target="nEtOkZ7gd0ag-XSUoiwr-28" edge="1" source="nEtOkZ7gd0ag-XSUoiwr-23">
          <mxGeometry width="50" height="50" relative="1" as="geometry">
            <mxPoint x="590" y="390" as="sourcePoint" />
            <mxPoint x="790" y="380" as="targetPoint" />
          </mxGeometry>
        </mxCell>
        <mxCell id="nEtOkZ7gd0ag-XSUoiwr-46" value="" style="endArrow=none;html=1;rounded=0;" parent="WIyWlLk6GJQsqaUBKTNV-1" source="nEtOkZ7gd0ag-XSUoiwr-23" target="nEtOkZ7gd0ag-XSUoiwr-32" edge="1">
          <mxGeometry width="50" height="50" relative="1" as="geometry">
            <mxPoint x="590" y="430" as="sourcePoint" />
            <mxPoint x="490" y="520" as="targetPoint" />
          </mxGeometry>
        </mxCell>
        <mxCell id="nEtOkZ7gd0ag-XSUoiwr-47" value="" style="endArrow=none;html=1;rounded=0;" parent="WIyWlLk6GJQsqaUBKTNV-1" source="nEtOkZ7gd0ag-XSUoiwr-23" target="nEtOkZ7gd0ag-XSUoiwr-29" edge="1">
          <mxGeometry width="50" height="50" relative="1" as="geometry">
            <mxPoint x="580" y="410" as="sourcePoint" />
            <mxPoint x="630" y="360" as="targetPoint" />
          </mxGeometry>
        </mxCell>
        <mxCell id="nEtOkZ7gd0ag-XSUoiwr-49" value="" style="endArrow=none;html=1;rounded=0;" parent="WIyWlLk6GJQsqaUBKTNV-1" source="nEtOkZ7gd0ag-XSUoiwr-23" target="nEtOkZ7gd0ag-XSUoiwr-30" edge="1">
          <mxGeometry width="50" height="50" relative="1" as="geometry">
            <mxPoint x="500" y="510" as="sourcePoint" />
            <mxPoint x="550" y="460" as="targetPoint" />
          </mxGeometry>
        </mxCell>
        <mxCell id="nEtOkZ7gd0ag-XSUoiwr-50" value="Operates" style="rhombus;whiteSpace=wrap;html=1;" parent="WIyWlLk6GJQsqaUBKTNV-1" vertex="1">
          <mxGeometry x="133.5" y="380" width="90" height="50" as="geometry" />
        </mxCell>
        <mxCell id="nEtOkZ7gd0ag-XSUoiwr-51" value="" style="endArrow=none;html=1;rounded=0;" parent="WIyWlLk6GJQsqaUBKTNV-1" source="nEtOkZ7gd0ag-XSUoiwr-0" target="nEtOkZ7gd0ag-XSUoiwr-50" edge="1">
          <mxGeometry width="50" height="50" relative="1" as="geometry">
            <mxPoint x="240" y="800" as="sourcePoint" />
            <mxPoint x="290" y="750" as="targetPoint" />
          </mxGeometry>
        </mxCell>
        <mxCell id="nEtOkZ7gd0ag-XSUoiwr-52" value="" style="endArrow=none;html=1;rounded=0;" parent="WIyWlLk6GJQsqaUBKTNV-1" source="nEtOkZ7gd0ag-XSUoiwr-50" target="nEtOkZ7gd0ag-XSUoiwr-23" edge="1">
          <mxGeometry width="50" height="50" relative="1" as="geometry">
            <mxPoint x="380" y="750" as="sourcePoint" />
            <mxPoint x="430" y="700" as="targetPoint" />
          </mxGeometry>
        </mxCell>
        <mxCell id="nEtOkZ7gd0ag-XSUoiwr-53" value="" style="endArrow=none;html=1;rounded=0;" parent="WIyWlLk6GJQsqaUBKTNV-1" source="nEtOkZ7gd0ag-XSUoiwr-54" target="nEtOkZ7gd0ag-XSUoiwr-50" edge="1">
          <mxGeometry width="50" height="50" relative="1" as="geometry">
            <mxPoint x="-26.5" y="422.5" as="sourcePoint" />
            <mxPoint x="-26.5" y="387.5" as="targetPoint" />
          </mxGeometry>
        </mxCell>
        <mxCell id="nEtOkZ7gd0ag-XSUoiwr-54" value="role" style="ellipse;whiteSpace=wrap;html=1;" parent="WIyWlLk6GJQsqaUBKTNV-1" vertex="1">
          <mxGeometry x="184" y="345" width="90" height="35" as="geometry" />
        </mxCell>
        <mxCell id="nEtOkZ7gd0ag-XSUoiwr-55" value="end date" style="ellipse;whiteSpace=wrap;html=1;" parent="WIyWlLk6GJQsqaUBKTNV-1" vertex="1">
          <mxGeometry x="110" y="315" width="90" height="35" as="geometry" />
        </mxCell>
        <mxCell id="nEtOkZ7gd0ag-XSUoiwr-56" value="startDate" style="ellipse;whiteSpace=wrap;html=1;" parent="WIyWlLk6GJQsqaUBKTNV-1" vertex="1">
          <mxGeometry x="50" y="350" width="90" height="35" as="geometry" />
        </mxCell>
        <mxCell id="nEtOkZ7gd0ag-XSUoiwr-57" value="" style="endArrow=none;html=1;rounded=0;" parent="WIyWlLk6GJQsqaUBKTNV-1" source="nEtOkZ7gd0ag-XSUoiwr-50" target="nEtOkZ7gd0ag-XSUoiwr-55" edge="1">
          <mxGeometry width="50" height="50" relative="1" as="geometry">
            <mxPoint x="83.5" y="425" as="sourcePoint" />
            <mxPoint x="133.5" y="375" as="targetPoint" />
          </mxGeometry>
        </mxCell>
        <mxCell id="nEtOkZ7gd0ag-XSUoiwr-58" value="" style="endArrow=none;html=1;rounded=0;" parent="WIyWlLk6GJQsqaUBKTNV-1" source="nEtOkZ7gd0ag-XSUoiwr-50" target="nEtOkZ7gd0ag-XSUoiwr-56" edge="1">
          <mxGeometry width="50" height="50" relative="1" as="geometry">
            <mxPoint x="253.5" y="545" as="sourcePoint" />
            <mxPoint x="303.5" y="495" as="targetPoint" />
          </mxGeometry>
        </mxCell>
        <mxCell id="nEtOkZ7gd0ag-XSUoiwr-59" value="Family Member" style="rounded=0;whiteSpace=wrap;html=1;" parent="WIyWlLk6GJQsqaUBKTNV-1" vertex="1">
          <mxGeometry x="125" y="1141" width="120" height="40" as="geometry" />
        </mxCell>
        <mxCell id="nEtOkZ7gd0ag-XSUoiwr-62" value="first name" style="ellipse;whiteSpace=wrap;html=1;" parent="WIyWlLk6GJQsqaUBKTNV-1" vertex="1">
          <mxGeometry x="-15" y="1112" width="90" height="35" as="geometry" />
        </mxCell>
        <mxCell id="nEtOkZ7gd0ag-XSUoiwr-64" value="last name" style="ellipse;whiteSpace=wrap;html=1;" parent="WIyWlLk6GJQsqaUBKTNV-1" vertex="1">
          <mxGeometry x="-15" y="1154.5" width="90" height="35" as="geometry" />
        </mxCell>
        <mxCell id="nEtOkZ7gd0ag-XSUoiwr-65" value="birth date" style="ellipse;whiteSpace=wrap;html=1;" parent="WIyWlLk6GJQsqaUBKTNV-1" vertex="1">
          <mxGeometry x="-15" y="1196" width="90" height="35" as="geometry" />
        </mxCell>
        <mxCell id="nEtOkZ7gd0ag-XSUoiwr-66" value="SIN" style="ellipse;whiteSpace=wrap;html=1;" parent="WIyWlLk6GJQsqaUBKTNV-1" vertex="1">
          <mxGeometry x="-15" y="1242" width="90" height="35" as="geometry" />
        </mxCell>
        <mxCell id="nEtOkZ7gd0ag-XSUoiwr-67" value="Medicare Number" style="ellipse;whiteSpace=wrap;html=1;" parent="WIyWlLk6GJQsqaUBKTNV-1" vertex="1">
          <mxGeometry x="-15" y="1332" width="90" height="35" as="geometry" />
        </mxCell>
        <mxCell id="nEtOkZ7gd0ag-XSUoiwr-68" value="phone number" style="ellipse;whiteSpace=wrap;html=1;" parent="WIyWlLk6GJQsqaUBKTNV-1" vertex="1">
          <mxGeometry x="-15" y="1452" width="90" height="35" as="geometry" />
        </mxCell>
        <mxCell id="nEtOkZ7gd0ag-XSUoiwr-69" value="city" style="ellipse;whiteSpace=wrap;html=1;" parent="WIyWlLk6GJQsqaUBKTNV-1" vertex="1">
          <mxGeometry x="-15" y="1282" width="90" height="35" as="geometry" />
        </mxCell>
        <mxCell id="nEtOkZ7gd0ag-XSUoiwr-70" value="province" style="ellipse;whiteSpace=wrap;html=1;" parent="WIyWlLk6GJQsqaUBKTNV-1" vertex="1">
          <mxGeometry x="-15" y="1372" width="90" height="35" as="geometry" />
        </mxCell>
        <mxCell id="nEtOkZ7gd0ag-XSUoiwr-71" value="postal code" style="ellipse;whiteSpace=wrap;html=1;" parent="WIyWlLk6GJQsqaUBKTNV-1" vertex="1">
          <mxGeometry x="-15" y="1492" width="90" height="35" as="geometry" />
        </mxCell>
        <mxCell id="nEtOkZ7gd0ag-XSUoiwr-72" value="email address" style="ellipse;whiteSpace=wrap;html=1;" parent="WIyWlLk6GJQsqaUBKTNV-1" vertex="1">
          <mxGeometry x="-15" y="1412" width="90" height="35" as="geometry" />
        </mxCell>
        <mxCell id="nEtOkZ7gd0ag-XSUoiwr-81" value="Associated" style="rhombus;whiteSpace=wrap;html=1;" parent="WIyWlLk6GJQsqaUBKTNV-1" vertex="1">
          <mxGeometry x="135" y="885" width="90" height="50" as="geometry" />
        </mxCell>
        <mxCell id="nEtOkZ7gd0ag-XSUoiwr-82" value="" style="endArrow=none;html=1;rounded=0;entryX=0.5;entryY=1;entryDx=0;entryDy=0;exitX=0.5;exitY=0;exitDx=0;exitDy=0;" parent="WIyWlLk6GJQsqaUBKTNV-1" source="nEtOkZ7gd0ag-XSUoiwr-59" target="nEtOkZ7gd0ag-XSUoiwr-81" edge="1">
          <mxGeometry width="50" height="50" relative="1" as="geometry">
            <mxPoint x="220" y="1030" as="sourcePoint" />
            <mxPoint x="270" y="980" as="targetPoint" />
          </mxGeometry>
        </mxCell>
        <mxCell id="nEtOkZ7gd0ag-XSUoiwr-83" value="" style="endArrow=none;html=1;rounded=0;entryX=0.5;entryY=1;entryDx=0;entryDy=0;exitX=0.5;exitY=0;exitDx=0;exitDy=0;" parent="WIyWlLk6GJQsqaUBKTNV-1" source="nEtOkZ7gd0ag-XSUoiwr-81" target="nEtOkZ7gd0ag-XSUoiwr-0" edge="1">
          <mxGeometry width="50" height="50" relative="1" as="geometry">
            <mxPoint x="160" y="780" as="sourcePoint" />
            <mxPoint x="210" y="730" as="targetPoint" />
          </mxGeometry>
        </mxCell>
        <mxCell id="nEtOkZ7gd0ag-XSUoiwr-93" value="" style="rounded=0;whiteSpace=wrap;html=1;" parent="WIyWlLk6GJQsqaUBKTNV-1" vertex="1">
          <mxGeometry x="-270" y="921.37" width="140" height="50" as="geometry" />
        </mxCell>
        <mxCell id="nEtOkZ7gd0ag-XSUoiwr-94" value="Secondary Family Member" style="rounded=0;whiteSpace=wrap;html=1;" parent="WIyWlLk6GJQsqaUBKTNV-1" vertex="1">
          <mxGeometry x="-260" y="927.62" width="120" height="37.5" as="geometry" />
        </mxCell>
        <mxCell id="nEtOkZ7gd0ag-XSUoiwr-148" style="edgeStyle=orthogonalEdgeStyle;rounded=0;orthogonalLoop=1;jettySize=auto;html=1;" parent="WIyWlLk6GJQsqaUBKTNV-1" source="nEtOkZ7gd0ag-XSUoiwr-95" target="nEtOkZ7gd0ag-XSUoiwr-59" edge="1">
          <mxGeometry relative="1" as="geometry">
            <Array as="points">
              <mxPoint x="150" y="1040" />
            </Array>
          </mxGeometry>
        </mxCell>
        <mxCell id="A3gkDtnCZg2_mEMA7PSZ-1" style="edgeStyle=orthogonalEdgeStyle;rounded=0;orthogonalLoop=1;jettySize=auto;html=1;" edge="1" parent="WIyWlLk6GJQsqaUBKTNV-1" source="nEtOkZ7gd0ag-XSUoiwr-95" target="nEtOkZ7gd0ag-XSUoiwr-93">
          <mxGeometry relative="1" as="geometry" />
        </mxCell>
        <mxCell id="nEtOkZ7gd0ag-XSUoiwr-95" value="" style="rhombus;whiteSpace=wrap;html=1;" parent="WIyWlLk6GJQsqaUBKTNV-1" vertex="1">
          <mxGeometry x="-125" y="1012" width="100" height="60" as="geometry" />
        </mxCell>
        <mxCell id="nEtOkZ7gd0ag-XSUoiwr-96" value="designates" style="rhombus;whiteSpace=wrap;html=1;" parent="WIyWlLk6GJQsqaUBKTNV-1" vertex="1">
          <mxGeometry x="-120" y="1017" width="90" height="50" as="geometry" />
        </mxCell>
        <mxCell id="nEtOkZ7gd0ag-XSUoiwr-100" value="&lt;u&gt;&lt;b&gt;first name&lt;/b&gt;&lt;/u&gt;" style="ellipse;whiteSpace=wrap;html=1;" parent="WIyWlLk6GJQsqaUBKTNV-1" vertex="1">
          <mxGeometry x="-310" y="871.25" width="90" height="35" as="geometry" />
        </mxCell>
        <mxCell id="nEtOkZ7gd0ag-XSUoiwr-101" value="&lt;u&gt;&lt;b&gt;last name&lt;/b&gt;&lt;/u&gt;" style="ellipse;whiteSpace=wrap;html=1;" parent="WIyWlLk6GJQsqaUBKTNV-1" vertex="1">
          <mxGeometry x="-230" y="846.25" width="90" height="35" as="geometry" />
        </mxCell>
        <mxCell id="nEtOkZ7gd0ag-XSUoiwr-102" value="phone number" style="ellipse;whiteSpace=wrap;html=1;" parent="WIyWlLk6GJQsqaUBKTNV-1" vertex="1">
          <mxGeometry x="-160" y="881.25" width="90" height="35" as="geometry" />
        </mxCell>
        <mxCell id="nEtOkZ7gd0ag-XSUoiwr-103" value="" style="endArrow=none;html=1;rounded=0;" parent="WIyWlLk6GJQsqaUBKTNV-1" source="nEtOkZ7gd0ag-XSUoiwr-93" target="nEtOkZ7gd0ag-XSUoiwr-100" edge="1">
          <mxGeometry width="50" height="50" relative="1" as="geometry">
            <mxPoint x="-250" y="1042.37" as="sourcePoint" />
            <mxPoint x="-200" y="992.37" as="targetPoint" />
          </mxGeometry>
        </mxCell>
        <mxCell id="nEtOkZ7gd0ag-XSUoiwr-104" value="" style="endArrow=none;html=1;rounded=0;" parent="WIyWlLk6GJQsqaUBKTNV-1" source="nEtOkZ7gd0ag-XSUoiwr-93" target="nEtOkZ7gd0ag-XSUoiwr-101" edge="1">
          <mxGeometry width="50" height="50" relative="1" as="geometry">
            <mxPoint x="-220" y="1052.37" as="sourcePoint" />
            <mxPoint x="-170" y="1002.37" as="targetPoint" />
          </mxGeometry>
        </mxCell>
        <mxCell id="nEtOkZ7gd0ag-XSUoiwr-105" value="" style="endArrow=none;html=1;rounded=0;" parent="WIyWlLk6GJQsqaUBKTNV-1" source="nEtOkZ7gd0ag-XSUoiwr-93" target="nEtOkZ7gd0ag-XSUoiwr-102" edge="1">
          <mxGeometry width="50" height="50" relative="1" as="geometry">
            <mxPoint x="-170" y="1032.37" as="sourcePoint" />
            <mxPoint x="-120" y="982.37" as="targetPoint" />
          </mxGeometry>
        </mxCell>
        <mxCell id="nEtOkZ7gd0ag-XSUoiwr-106" value="Club Member" style="rounded=0;whiteSpace=wrap;html=1;" parent="WIyWlLk6GJQsqaUBKTNV-1" vertex="1">
          <mxGeometry x="490" y="1207.1200000000001" width="120" height="40" as="geometry" />
        </mxCell>
        <mxCell id="nEtOkZ7gd0ag-XSUoiwr-107" value="" style="endArrow=none;html=1;rounded=0;entryX=0.5;entryY=1;entryDx=0;entryDy=0;exitX=0.5;exitY=0;exitDx=0;exitDy=0;" parent="WIyWlLk6GJQsqaUBKTNV-1" source="nEtOkZ7gd0ag-XSUoiwr-118" edge="1">
          <mxGeometry width="50" height="50" relative="1" as="geometry">
            <mxPoint x="500" y="1488.1200000000001" as="sourcePoint" />
            <mxPoint x="550" y="1248.1200000000001" as="targetPoint" />
          </mxGeometry>
        </mxCell>
        <mxCell id="nEtOkZ7gd0ag-XSUoiwr-108" value="first name" style="ellipse;whiteSpace=wrap;html=1;" parent="WIyWlLk6GJQsqaUBKTNV-1" vertex="1">
          <mxGeometry x="505" y="1268.1200000000001" width="90" height="35" as="geometry" />
        </mxCell>
        <mxCell id="nEtOkZ7gd0ag-XSUoiwr-109" value="" style="endArrow=none;html=1;rounded=0;entryX=0.5;entryY=1;entryDx=0;entryDy=0;exitX=0.5;exitY=0;exitDx=0;exitDy=0;" parent="WIyWlLk6GJQsqaUBKTNV-1" source="nEtOkZ7gd0ag-XSUoiwr-108" edge="1">
          <mxGeometry width="50" height="50" relative="1" as="geometry">
            <mxPoint x="430" y="1318.1200000000001" as="sourcePoint" />
            <mxPoint x="550" y="1248.1200000000001" as="targetPoint" />
          </mxGeometry>
        </mxCell>
        <mxCell id="nEtOkZ7gd0ag-XSUoiwr-110" value="last name" style="ellipse;whiteSpace=wrap;html=1;" parent="WIyWlLk6GJQsqaUBKTNV-1" vertex="1">
          <mxGeometry x="610" y="1268.1200000000001" width="90" height="35" as="geometry" />
        </mxCell>
        <mxCell id="nEtOkZ7gd0ag-XSUoiwr-111" value="&lt;b&gt;&lt;u&gt;CMN&lt;/u&gt;&lt;/b&gt;" style="ellipse;whiteSpace=wrap;html=1;" parent="WIyWlLk6GJQsqaUBKTNV-1" vertex="1">
          <mxGeometry x="400" y="1268.1200000000001" width="90" height="35" as="geometry" />
        </mxCell>
        <mxCell id="nEtOkZ7gd0ag-XSUoiwr-112" value="birth date" style="ellipse;whiteSpace=wrap;html=1;" parent="WIyWlLk6GJQsqaUBKTNV-1" vertex="1">
          <mxGeometry x="400" y="1308.1200000000001" width="90" height="35" as="geometry" />
        </mxCell>
        <mxCell id="nEtOkZ7gd0ag-XSUoiwr-113" value="height" style="ellipse;whiteSpace=wrap;html=1;" parent="WIyWlLk6GJQsqaUBKTNV-1" vertex="1">
          <mxGeometry x="505" y="1308.1200000000001" width="90" height="35" as="geometry" />
        </mxCell>
        <mxCell id="nEtOkZ7gd0ag-XSUoiwr-114" value="weight" style="ellipse;whiteSpace=wrap;html=1;" parent="WIyWlLk6GJQsqaUBKTNV-1" vertex="1">
          <mxGeometry x="610" y="1308.1200000000001" width="90" height="35" as="geometry" />
        </mxCell>
        <mxCell id="nEtOkZ7gd0ag-XSUoiwr-115" value="SIN" style="ellipse;whiteSpace=wrap;html=1;" parent="WIyWlLk6GJQsqaUBKTNV-1" vertex="1">
          <mxGeometry x="400" y="1348.1200000000001" width="90" height="35" as="geometry" />
        </mxCell>
        <mxCell id="nEtOkZ7gd0ag-XSUoiwr-116" value="medicare number" style="ellipse;whiteSpace=wrap;html=1;" parent="WIyWlLk6GJQsqaUBKTNV-1" vertex="1">
          <mxGeometry x="505" y="1348.1200000000001" width="90" height="35" as="geometry" />
        </mxCell>
        <mxCell id="nEtOkZ7gd0ag-XSUoiwr-117" value="phone number" style="ellipse;whiteSpace=wrap;html=1;" parent="WIyWlLk6GJQsqaUBKTNV-1" vertex="1">
          <mxGeometry x="610" y="1348.1200000000001" width="90" height="35" as="geometry" />
        </mxCell>
        <mxCell id="nEtOkZ7gd0ag-XSUoiwr-118" value="province" style="ellipse;whiteSpace=wrap;html=1;" parent="WIyWlLk6GJQsqaUBKTNV-1" vertex="1">
          <mxGeometry x="505" y="1388.1200000000001" width="90" height="35" as="geometry" />
        </mxCell>
        <mxCell id="nEtOkZ7gd0ag-XSUoiwr-119" value="" style="endArrow=none;html=1;rounded=0;entryX=0;entryY=1;entryDx=0;entryDy=0;exitX=0.5;exitY=0;exitDx=0;exitDy=0;" parent="WIyWlLk6GJQsqaUBKTNV-1" source="nEtOkZ7gd0ag-XSUoiwr-111" edge="1">
          <mxGeometry width="50" height="50" relative="1" as="geometry">
            <mxPoint x="460" y="1298.1200000000001" as="sourcePoint" />
            <mxPoint x="490" y="1248.1200000000001" as="targetPoint" />
          </mxGeometry>
        </mxCell>
        <mxCell id="nEtOkZ7gd0ag-XSUoiwr-120" value="" style="endArrow=none;html=1;rounded=0;exitX=1;exitY=0.5;exitDx=0;exitDy=0;entryX=0.161;entryY=0.982;entryDx=0;entryDy=0;entryPerimeter=0;" parent="WIyWlLk6GJQsqaUBKTNV-1" source="nEtOkZ7gd0ag-XSUoiwr-112" edge="1">
          <mxGeometry width="50" height="50" relative="1" as="geometry">
            <mxPoint x="490" y="1318.1200000000001" as="sourcePoint" />
            <mxPoint x="509" y="1247.1200000000001" as="targetPoint" />
          </mxGeometry>
        </mxCell>
        <mxCell id="nEtOkZ7gd0ag-XSUoiwr-121" value="" style="endArrow=none;html=1;rounded=0;entryX=0.155;entryY=0.982;entryDx=0;entryDy=0;entryPerimeter=0;exitX=1;exitY=0.382;exitDx=0;exitDy=0;exitPerimeter=0;" parent="WIyWlLk6GJQsqaUBKTNV-1" source="nEtOkZ7gd0ag-XSUoiwr-115" edge="1">
          <mxGeometry width="50" height="50" relative="1" as="geometry">
            <mxPoint x="480" y="1308.1200000000001" as="sourcePoint" />
            <mxPoint x="509" y="1247.1200000000001" as="targetPoint" />
          </mxGeometry>
        </mxCell>
        <mxCell id="nEtOkZ7gd0ag-XSUoiwr-122" value="" style="endArrow=none;html=1;rounded=0;entryX=1;entryY=1;entryDx=0;entryDy=0;exitX=0.5;exitY=0;exitDx=0;exitDy=0;" parent="WIyWlLk6GJQsqaUBKTNV-1" source="nEtOkZ7gd0ag-XSUoiwr-110" edge="1">
          <mxGeometry width="50" height="50" relative="1" as="geometry">
            <mxPoint x="630" y="1278.1200000000001" as="sourcePoint" />
            <mxPoint x="610" y="1248.1200000000001" as="targetPoint" />
          </mxGeometry>
        </mxCell>
        <mxCell id="nEtOkZ7gd0ag-XSUoiwr-123" value="" style="endArrow=none;html=1;rounded=0;entryX=0.858;entryY=1.019;entryDx=0;entryDy=0;entryPerimeter=0;exitX=0;exitY=0.5;exitDx=0;exitDy=0;" parent="WIyWlLk6GJQsqaUBKTNV-1" source="nEtOkZ7gd0ag-XSUoiwr-114" edge="1">
          <mxGeometry width="50" height="50" relative="1" as="geometry">
            <mxPoint x="560" y="1318.1200000000001" as="sourcePoint" />
            <mxPoint x="593" y="1249.1200000000001" as="targetPoint" />
          </mxGeometry>
        </mxCell>
        <mxCell id="nEtOkZ7gd0ag-XSUoiwr-124" value="" style="endArrow=none;html=1;rounded=0;entryX=0;entryY=0.5;entryDx=0;entryDy=0;exitX=0.852;exitY=0.982;exitDx=0;exitDy=0;exitPerimeter=0;" parent="WIyWlLk6GJQsqaUBKTNV-1" target="nEtOkZ7gd0ag-XSUoiwr-117" edge="1">
          <mxGeometry width="50" height="50" relative="1" as="geometry">
            <mxPoint x="592" y="1247.1200000000001" as="sourcePoint" />
            <mxPoint x="730" y="1458.1200000000001" as="targetPoint" />
          </mxGeometry>
        </mxCell>
        <mxCell id="nEtOkZ7gd0ag-XSUoiwr-125" value="city" style="ellipse;whiteSpace=wrap;html=1;" parent="WIyWlLk6GJQsqaUBKTNV-1" vertex="1">
          <mxGeometry x="400" y="1388.1200000000001" width="90" height="35" as="geometry" />
        </mxCell>
        <mxCell id="nEtOkZ7gd0ag-XSUoiwr-126" value="postal code" style="ellipse;whiteSpace=wrap;html=1;" parent="WIyWlLk6GJQsqaUBKTNV-1" vertex="1">
          <mxGeometry x="610" y="1388.1200000000001" width="90" height="35" as="geometry" />
        </mxCell>
        <mxCell id="nEtOkZ7gd0ag-XSUoiwr-127" value="" style="endArrow=none;html=1;rounded=0;entryX=0.175;entryY=1.011;entryDx=0;entryDy=0;entryPerimeter=0;exitX=1;exitY=0.5;exitDx=0;exitDy=0;" parent="WIyWlLk6GJQsqaUBKTNV-1" source="nEtOkZ7gd0ag-XSUoiwr-125" target="nEtOkZ7gd0ag-XSUoiwr-106" edge="1">
          <mxGeometry width="50" height="50" relative="1" as="geometry">
            <mxPoint x="465" y="1482.1200000000001" as="sourcePoint" />
            <mxPoint x="515" y="1432.1200000000001" as="targetPoint" />
          </mxGeometry>
        </mxCell>
        <mxCell id="nEtOkZ7gd0ag-XSUoiwr-128" value="" style="endArrow=none;html=1;rounded=0;entryX=0;entryY=0.5;entryDx=0;entryDy=0;" parent="WIyWlLk6GJQsqaUBKTNV-1" target="nEtOkZ7gd0ag-XSUoiwr-126" edge="1">
          <mxGeometry width="50" height="50" relative="1" as="geometry">
            <mxPoint x="595" y="1252.1200000000001" as="sourcePoint" />
            <mxPoint x="625" y="1452.1200000000001" as="targetPoint" />
          </mxGeometry>
        </mxCell>
        <mxCell id="nEtOkZ7gd0ag-XSUoiwr-136" value="" style="endArrow=none;html=1;rounded=0;entryX=0.5;entryY=1;entryDx=0;entryDy=0;exitX=1;exitY=0.5;exitDx=0;exitDy=0;" parent="WIyWlLk6GJQsqaUBKTNV-1" source="nEtOkZ7gd0ag-XSUoiwr-68" target="nEtOkZ7gd0ag-XSUoiwr-59" edge="1">
          <mxGeometry width="50" height="50" relative="1" as="geometry">
            <mxPoint x="125" y="1242" as="sourcePoint" />
            <mxPoint x="175" y="1192" as="targetPoint" />
          </mxGeometry>
        </mxCell>
        <mxCell id="nEtOkZ7gd0ag-XSUoiwr-137" value="" style="endArrow=none;html=1;rounded=0;entryX=0.5;entryY=1;entryDx=0;entryDy=0;exitX=1;exitY=0.5;exitDx=0;exitDy=0;" parent="WIyWlLk6GJQsqaUBKTNV-1" target="nEtOkZ7gd0ag-XSUoiwr-59" edge="1">
          <mxGeometry width="50" height="50" relative="1" as="geometry">
            <mxPoint x="75" y="1430" as="sourcePoint" />
            <mxPoint x="185" y="1141" as="targetPoint" />
          </mxGeometry>
        </mxCell>
        <mxCell id="nEtOkZ7gd0ag-XSUoiwr-138" value="" style="endArrow=none;html=1;rounded=0;entryX=0.25;entryY=1;entryDx=0;entryDy=0;exitX=1;exitY=0.286;exitDx=0;exitDy=0;exitPerimeter=0;" parent="WIyWlLk6GJQsqaUBKTNV-1" source="nEtOkZ7gd0ag-XSUoiwr-70" target="nEtOkZ7gd0ag-XSUoiwr-59" edge="1">
          <mxGeometry width="50" height="50" relative="1" as="geometry">
            <mxPoint x="85" y="1440" as="sourcePoint" />
            <mxPoint x="195" y="1191" as="targetPoint" />
          </mxGeometry>
        </mxCell>
        <mxCell id="nEtOkZ7gd0ag-XSUoiwr-139" value="" style="endArrow=none;html=1;rounded=0;entryX=0.25;entryY=1;entryDx=0;entryDy=0;exitX=1;exitY=0.5;exitDx=0;exitDy=0;" parent="WIyWlLk6GJQsqaUBKTNV-1" source="nEtOkZ7gd0ag-XSUoiwr-67" target="nEtOkZ7gd0ag-XSUoiwr-59" edge="1">
          <mxGeometry width="50" height="50" relative="1" as="geometry">
            <mxPoint x="95" y="1450" as="sourcePoint" />
            <mxPoint x="205" y="1201" as="targetPoint" />
          </mxGeometry>
        </mxCell>
        <mxCell id="nEtOkZ7gd0ag-XSUoiwr-140" value="" style="endArrow=none;html=1;rounded=0;entryX=0;entryY=1;entryDx=0;entryDy=0;exitX=1;exitY=0.5;exitDx=0;exitDy=0;" parent="WIyWlLk6GJQsqaUBKTNV-1" source="nEtOkZ7gd0ag-XSUoiwr-69" target="nEtOkZ7gd0ag-XSUoiwr-59" edge="1">
          <mxGeometry width="50" height="50" relative="1" as="geometry">
            <mxPoint x="105" y="1460" as="sourcePoint" />
            <mxPoint x="215" y="1211" as="targetPoint" />
          </mxGeometry>
        </mxCell>
        <mxCell id="nEtOkZ7gd0ag-XSUoiwr-141" value="" style="endArrow=none;html=1;rounded=0;entryX=0;entryY=0.5;entryDx=0;entryDy=0;exitX=1;exitY=0.5;exitDx=0;exitDy=0;" parent="WIyWlLk6GJQsqaUBKTNV-1" source="nEtOkZ7gd0ag-XSUoiwr-66" target="nEtOkZ7gd0ag-XSUoiwr-59" edge="1">
          <mxGeometry width="50" height="50" relative="1" as="geometry">
            <mxPoint x="115" y="1470" as="sourcePoint" />
            <mxPoint x="225" y="1221" as="targetPoint" />
          </mxGeometry>
        </mxCell>
        <mxCell id="nEtOkZ7gd0ag-XSUoiwr-142" value="" style="endArrow=none;html=1;rounded=0;entryX=0;entryY=0.5;entryDx=0;entryDy=0;exitX=1;exitY=0.5;exitDx=0;exitDy=0;" parent="WIyWlLk6GJQsqaUBKTNV-1" source="nEtOkZ7gd0ag-XSUoiwr-65" target="nEtOkZ7gd0ag-XSUoiwr-59" edge="1">
          <mxGeometry width="50" height="50" relative="1" as="geometry">
            <mxPoint x="125" y="1480" as="sourcePoint" />
            <mxPoint x="235" y="1231" as="targetPoint" />
          </mxGeometry>
        </mxCell>
        <mxCell id="nEtOkZ7gd0ag-XSUoiwr-143" value="" style="endArrow=none;html=1;rounded=0;entryX=0;entryY=0.5;entryDx=0;entryDy=0;exitX=1;exitY=0.5;exitDx=0;exitDy=0;" parent="WIyWlLk6GJQsqaUBKTNV-1" source="nEtOkZ7gd0ag-XSUoiwr-64" target="nEtOkZ7gd0ag-XSUoiwr-59" edge="1">
          <mxGeometry width="50" height="50" relative="1" as="geometry">
            <mxPoint x="135" y="1490" as="sourcePoint" />
            <mxPoint x="245" y="1241" as="targetPoint" />
          </mxGeometry>
        </mxCell>
        <mxCell id="nEtOkZ7gd0ag-XSUoiwr-144" value="" style="endArrow=none;html=1;rounded=0;entryX=0;entryY=0.5;entryDx=0;entryDy=0;exitX=1;exitY=0.5;exitDx=0;exitDy=0;" parent="WIyWlLk6GJQsqaUBKTNV-1" source="nEtOkZ7gd0ag-XSUoiwr-62" target="nEtOkZ7gd0ag-XSUoiwr-59" edge="1">
          <mxGeometry width="50" height="50" relative="1" as="geometry">
            <mxPoint x="85" y="1182" as="sourcePoint" />
            <mxPoint x="135" y="1171" as="targetPoint" />
          </mxGeometry>
        </mxCell>
        <mxCell id="nEtOkZ7gd0ag-XSUoiwr-147" style="edgeStyle=orthogonalEdgeStyle;rounded=0;orthogonalLoop=1;jettySize=auto;html=1;exitX=0;exitY=0.5;exitDx=0;exitDy=0;entryX=0.656;entryY=0.973;entryDx=0;entryDy=0;entryPerimeter=0;" parent="WIyWlLk6GJQsqaUBKTNV-1" source="nEtOkZ7gd0ag-XSUoiwr-145" target="nEtOkZ7gd0ag-XSUoiwr-59" edge="1">
          <mxGeometry relative="1" as="geometry" />
        </mxCell>
        <mxCell id="nEtOkZ7gd0ag-XSUoiwr-145" value="Relationship" style="rhombus;whiteSpace=wrap;html=1;" parent="WIyWlLk6GJQsqaUBKTNV-1" vertex="1">
          <mxGeometry x="245" y="1200.87" width="90" height="50" as="geometry" />
        </mxCell>
        <mxCell id="nEtOkZ7gd0ag-XSUoiwr-146" value="" style="endArrow=none;html=1;rounded=0;" parent="WIyWlLk6GJQsqaUBKTNV-1" source="nEtOkZ7gd0ag-XSUoiwr-106" target="nEtOkZ7gd0ag-XSUoiwr-145" edge="1">
          <mxGeometry width="50" height="50" relative="1" as="geometry">
            <mxPoint x="710" y="1200" as="sourcePoint" />
            <mxPoint x="300" y="1240" as="targetPoint" />
          </mxGeometry>
        </mxCell>
        <mxCell id="Ak_wFlDR8z4ldmzF6ij--2" value="Payment" style="rounded=0;whiteSpace=wrap;html=1;" parent="WIyWlLk6GJQsqaUBKTNV-1" vertex="1">
          <mxGeometry x="730" y="1297.6200000000001" width="120" height="40" as="geometry" />
        </mxCell>
        <mxCell id="Ak_wFlDR8z4ldmzF6ij--3" value="amount" style="ellipse;whiteSpace=wrap;html=1;" parent="WIyWlLk6GJQsqaUBKTNV-1" vertex="1">
          <mxGeometry x="750" y="1358.1200000000001" width="90" height="35" as="geometry" />
        </mxCell>
        <mxCell id="Ak_wFlDR8z4ldmzF6ij--4" value="paymentDate" style="ellipse;whiteSpace=wrap;html=1;" parent="WIyWlLk6GJQsqaUBKTNV-1" vertex="1">
          <mxGeometry x="840" y="1382" width="90" height="35" as="geometry" />
        </mxCell>
        <mxCell id="Ak_wFlDR8z4ldmzF6ij--5" value="method" style="ellipse;whiteSpace=wrap;html=1;" parent="WIyWlLk6GJQsqaUBKTNV-1" vertex="1">
          <mxGeometry x="860" y="1302" width="90" height="35" as="geometry" />
        </mxCell>
        <mxCell id="Ak_wFlDR8z4ldmzF6ij--6" value="effectiveDate" style="ellipse;whiteSpace=wrap;html=1;" parent="WIyWlLk6GJQsqaUBKTNV-1" vertex="1">
          <mxGeometry x="860" y="1342.0000000000002" width="90" height="35" as="geometry" />
        </mxCell>
        <mxCell id="Ak_wFlDR8z4ldmzF6ij--7" value="Makes" style="rhombus;whiteSpace=wrap;html=1;" parent="WIyWlLk6GJQsqaUBKTNV-1" vertex="1">
          <mxGeometry x="740" y="1200.8700000000001" width="100" height="60" as="geometry" />
        </mxCell>
        <mxCell id="Ak_wFlDR8z4ldmzF6ij--9" value="" style="endArrow=classic;html=1;rounded=0;exitX=0;exitY=0.5;exitDx=0;exitDy=0;entryX=1;entryY=0.5;entryDx=0;entryDy=0;" parent="WIyWlLk6GJQsqaUBKTNV-1" source="Ak_wFlDR8z4ldmzF6ij--7" target="nEtOkZ7gd0ag-XSUoiwr-106" edge="1">
          <mxGeometry width="50" height="50" relative="1" as="geometry">
            <mxPoint x="380" y="1257.1200000000001" as="sourcePoint" />
            <mxPoint x="430" y="1207.1200000000001" as="targetPoint" />
          </mxGeometry>
        </mxCell>
        <mxCell id="Ak_wFlDR8z4ldmzF6ij--10" value="" style="endArrow=none;html=1;rounded=0;entryX=0.5;entryY=1;entryDx=0;entryDy=0;exitX=0.5;exitY=0;exitDx=0;exitDy=0;" parent="WIyWlLk6GJQsqaUBKTNV-1" source="Ak_wFlDR8z4ldmzF6ij--2" target="Ak_wFlDR8z4ldmzF6ij--7" edge="1">
          <mxGeometry width="50" height="50" relative="1" as="geometry">
            <mxPoint x="788" y="1335.2500000000002" as="sourcePoint" />
            <mxPoint x="308" y="1334.2500000000002" as="targetPoint" />
          </mxGeometry>
        </mxCell>
        <mxCell id="Ak_wFlDR8z4ldmzF6ij--11" value="" style="endArrow=none;html=1;rounded=0;" parent="WIyWlLk6GJQsqaUBKTNV-1" source="Ak_wFlDR8z4ldmzF6ij--3" edge="1" target="Ak_wFlDR8z4ldmzF6ij--2">
          <mxGeometry width="50" height="50" relative="1" as="geometry">
            <mxPoint x="732.1030147522079" y="1392.9332181809466" as="sourcePoint" />
            <mxPoint x="790" y="1337.6200000000001" as="targetPoint" />
          </mxGeometry>
        </mxCell>
        <mxCell id="Ak_wFlDR8z4ldmzF6ij--12" value="" style="endArrow=none;html=1;rounded=0;" parent="WIyWlLk6GJQsqaUBKTNV-1" target="Ak_wFlDR8z4ldmzF6ij--6" edge="1" source="Ak_wFlDR8z4ldmzF6ij--2">
          <mxGeometry width="50" height="50" relative="1" as="geometry">
            <mxPoint x="790" y="1337.6200000000001" as="sourcePoint" />
            <mxPoint x="810" y="1272.6200000000001" as="targetPoint" />
          </mxGeometry>
        </mxCell>
        <mxCell id="Ak_wFlDR8z4ldmzF6ij--13" value="" style="endArrow=none;html=1;rounded=0;" parent="WIyWlLk6GJQsqaUBKTNV-1" target="Ak_wFlDR8z4ldmzF6ij--4" edge="1" source="Ak_wFlDR8z4ldmzF6ij--2">
          <mxGeometry width="50" height="50" relative="1" as="geometry">
            <mxPoint x="790" y="1341.6200000000001" as="sourcePoint" />
            <mxPoint x="820" y="1282.6200000000001" as="targetPoint" />
          </mxGeometry>
        </mxCell>
        <mxCell id="Ak_wFlDR8z4ldmzF6ij--14" value="" style="endArrow=none;html=1;rounded=0;" parent="WIyWlLk6GJQsqaUBKTNV-1" source="Ak_wFlDR8z4ldmzF6ij--5" edge="1" target="Ak_wFlDR8z4ldmzF6ij--2">
          <mxGeometry width="50" height="50" relative="1" as="geometry">
            <mxPoint x="830" y="1317.6200000000001" as="sourcePoint" />
            <mxPoint x="790" y="1336.6200000000001" as="targetPoint" />
          </mxGeometry>
        </mxCell>
        <mxCell id="Ak_wFlDR8z4ldmzF6ij--19" value="name" style="ellipse;whiteSpace=wrap;html=1;" parent="WIyWlLk6GJQsqaUBKTNV-1" vertex="1">
          <mxGeometry x="630" y="977" width="90" height="35" as="geometry" />
        </mxCell>
        <mxCell id="Ak_wFlDR8z4ldmzF6ij--21" value="TeamFormation" style="rounded=0;whiteSpace=wrap;html=1;" parent="WIyWlLk6GJQsqaUBKTNV-1" vertex="1">
          <mxGeometry x="490" y="943.87" width="120" height="40" as="geometry" />
        </mxCell>
        <mxCell id="Ak_wFlDR8z4ldmzF6ij--22" value="PlaysFor" style="rhombus;whiteSpace=wrap;html=1;" parent="WIyWlLk6GJQsqaUBKTNV-1" vertex="1">
          <mxGeometry x="505" y="1058.8700000000001" width="90" height="50" as="geometry" />
        </mxCell>
        <mxCell id="Ak_wFlDR8z4ldmzF6ij--23" value="Home" style="rhombus;whiteSpace=wrap;html=1;" parent="WIyWlLk6GJQsqaUBKTNV-1" vertex="1">
          <mxGeometry x="348" y="770" width="90" height="50" as="geometry" />
        </mxCell>
        <mxCell id="Ak_wFlDR8z4ldmzF6ij--24" value="Participates" style="rhombus;whiteSpace=wrap;html=1;" parent="WIyWlLk6GJQsqaUBKTNV-1" vertex="1">
          <mxGeometry x="509" y="786.25" width="90" height="50" as="geometry" />
        </mxCell>
        <mxCell id="Ak_wFlDR8z4ldmzF6ij--25" value="Hosts" style="rhombus;whiteSpace=wrap;html=1;" parent="WIyWlLk6GJQsqaUBKTNV-1" vertex="1">
          <mxGeometry x="320" y="667.5" width="90" height="50" as="geometry" />
        </mxCell>
        <mxCell id="Ak_wFlDR8z4ldmzF6ij--26" value="&lt;b&gt;&lt;u&gt;Id&lt;/u&gt;&lt;/b&gt;" style="ellipse;whiteSpace=wrap;html=1;" parent="WIyWlLk6GJQsqaUBKTNV-1" vertex="1">
          <mxGeometry x="480" y="610" width="90" height="35" as="geometry" />
        </mxCell>
        <mxCell id="Ak_wFlDR8z4ldmzF6ij--27" value="role" style="ellipse;whiteSpace=wrap;html=1;" parent="WIyWlLk6GJQsqaUBKTNV-1" vertex="1">
          <mxGeometry x="595" y="1043.8700000000003" width="90" height="35" as="geometry" />
        </mxCell>
        <mxCell id="Ak_wFlDR8z4ldmzF6ij--28" value="eventDateTime" style="ellipse;whiteSpace=wrap;html=1;" parent="WIyWlLk6GJQsqaUBKTNV-1" vertex="1">
          <mxGeometry x="584" y="617.5" width="90" height="35" as="geometry" />
        </mxCell>
        <mxCell id="Ak_wFlDR8z4ldmzF6ij--29" value="score" style="ellipse;whiteSpace=wrap;html=1;" parent="WIyWlLk6GJQsqaUBKTNV-1" vertex="1">
          <mxGeometry x="610" y="793.75" width="90" height="35" as="geometry" />
        </mxCell>
        <mxCell id="Ak_wFlDR8z4ldmzF6ij--30" value="" style="endArrow=none;html=1;rounded=0;" parent="WIyWlLk6GJQsqaUBKTNV-1" source="Ak_wFlDR8z4ldmzF6ij--22" target="nEtOkZ7gd0ag-XSUoiwr-106" edge="1">
          <mxGeometry width="50" height="50" relative="1" as="geometry">
            <mxPoint x="240" y="1008.87" as="sourcePoint" />
            <mxPoint x="290" y="958.87" as="targetPoint" />
          </mxGeometry>
        </mxCell>
        <mxCell id="Ak_wFlDR8z4ldmzF6ij--32" value="" style="endArrow=none;html=1;rounded=0;" parent="WIyWlLk6GJQsqaUBKTNV-1" source="Ak_wFlDR8z4ldmzF6ij--22" target="Ak_wFlDR8z4ldmzF6ij--27" edge="1">
          <mxGeometry width="50" height="50" relative="1" as="geometry">
            <mxPoint x="510" y="1028.8700000000001" as="sourcePoint" />
            <mxPoint x="560" y="978.87" as="targetPoint" />
          </mxGeometry>
        </mxCell>
        <mxCell id="Ak_wFlDR8z4ldmzF6ij--33" value="" style="endArrow=none;html=1;rounded=0;" parent="WIyWlLk6GJQsqaUBKTNV-1" source="Ak_wFlDR8z4ldmzF6ij--24" target="Ak_wFlDR8z4ldmzF6ij--21" edge="1">
          <mxGeometry width="50" height="50" relative="1" as="geometry">
            <mxPoint x="639" y="1026.25" as="sourcePoint" />
            <mxPoint x="689" y="976.25" as="targetPoint" />
          </mxGeometry>
        </mxCell>
        <mxCell id="Ak_wFlDR8z4ldmzF6ij--36" value="" style="endArrow=open;html=1;rounded=0;endFill=0;" parent="WIyWlLk6GJQsqaUBKTNV-1" source="Ak_wFlDR8z4ldmzF6ij--24" target="Ak_wFlDR8z4ldmzF6ij--53" edge="1">
          <mxGeometry width="50" height="50" relative="1" as="geometry">
            <mxPoint x="740" y="830" as="sourcePoint" />
            <mxPoint x="790" y="780" as="targetPoint" />
          </mxGeometry>
        </mxCell>
        <mxCell id="Ak_wFlDR8z4ldmzF6ij--37" value="" style="endArrow=none;html=1;rounded=0;" parent="WIyWlLk6GJQsqaUBKTNV-1" target="Ak_wFlDR8z4ldmzF6ij--29" edge="1" source="Ak_wFlDR8z4ldmzF6ij--24">
          <mxGeometry width="50" height="50" relative="1" as="geometry">
            <mxPoint x="599" y="811.25" as="sourcePoint" />
            <mxPoint x="689" y="786.25" as="targetPoint" />
          </mxGeometry>
        </mxCell>
        <mxCell id="Ak_wFlDR8z4ldmzF6ij--38" value="" style="endArrow=none;html=1;rounded=0;" parent="WIyWlLk6GJQsqaUBKTNV-1" source="Ak_wFlDR8z4ldmzF6ij--25" target="Ak_wFlDR8z4ldmzF6ij--53" edge="1">
          <mxGeometry width="50" height="50" relative="1" as="geometry">
            <mxPoint x="413.63993642061223" y="694.5221869003403" as="sourcePoint" />
            <mxPoint x="609" y="815" as="targetPoint" />
          </mxGeometry>
        </mxCell>
        <mxCell id="Ak_wFlDR8z4ldmzF6ij--39" value="" style="endArrow=classic;html=1;rounded=0;" parent="WIyWlLk6GJQsqaUBKTNV-1" source="Ak_wFlDR8z4ldmzF6ij--25" target="nEtOkZ7gd0ag-XSUoiwr-0" edge="1">
          <mxGeometry width="50" height="50" relative="1" as="geometry">
            <mxPoint x="550" y="860" as="sourcePoint" />
            <mxPoint x="600" y="810" as="targetPoint" />
          </mxGeometry>
        </mxCell>
        <mxCell id="Ak_wFlDR8z4ldmzF6ij--43" value="" style="endArrow=open;html=1;rounded=0;endFill=0;" parent="WIyWlLk6GJQsqaUBKTNV-1" source="Ak_wFlDR8z4ldmzF6ij--23" target="nEtOkZ7gd0ag-XSUoiwr-0" edge="1">
          <mxGeometry width="50" height="50" relative="1" as="geometry">
            <mxPoint x="649" y="799" as="sourcePoint" />
            <mxPoint x="569" y="718" as="targetPoint" />
          </mxGeometry>
        </mxCell>
        <mxCell id="Ak_wFlDR8z4ldmzF6ij--45" value="" style="endArrow=none;html=1;rounded=0;" parent="WIyWlLk6GJQsqaUBKTNV-1" source="Ak_wFlDR8z4ldmzF6ij--21" target="Ak_wFlDR8z4ldmzF6ij--19" edge="1">
          <mxGeometry width="50" height="50" relative="1" as="geometry">
            <mxPoint x="190" y="898.87" as="sourcePoint" />
            <mxPoint x="240" y="848.87" as="targetPoint" />
          </mxGeometry>
        </mxCell>
        <mxCell id="Ak_wFlDR8z4ldmzF6ij--46" value="" style="endArrow=none;html=1;rounded=0;" parent="WIyWlLk6GJQsqaUBKTNV-1" source="Ak_wFlDR8z4ldmzF6ij--26" target="Ak_wFlDR8z4ldmzF6ij--53" edge="1">
          <mxGeometry width="50" height="50" relative="1" as="geometry">
            <mxPoint x="429" y="895" as="sourcePoint" />
            <mxPoint x="479" y="845" as="targetPoint" />
          </mxGeometry>
        </mxCell>
        <mxCell id="Ak_wFlDR8z4ldmzF6ij--47" value="" style="endArrow=none;html=1;rounded=0;" parent="WIyWlLk6GJQsqaUBKTNV-1" source="Ak_wFlDR8z4ldmzF6ij--28" target="Ak_wFlDR8z4ldmzF6ij--53" edge="1">
          <mxGeometry width="50" height="50" relative="1" as="geometry">
            <mxPoint x="429" y="765" as="sourcePoint" />
            <mxPoint x="479" y="715" as="targetPoint" />
          </mxGeometry>
        </mxCell>
        <mxCell id="Ak_wFlDR8z4ldmzF6ij--48" value="LogEmail" style="rounded=0;whiteSpace=wrap;html=1;" parent="WIyWlLk6GJQsqaUBKTNV-1" vertex="1">
          <mxGeometry x="-290" y="406.25" width="120" height="40" as="geometry" />
        </mxCell>
        <mxCell id="Ak_wFlDR8z4ldmzF6ij--58" value="&lt;u&gt;&lt;b&gt;deliveryDateTime&lt;/b&gt;&lt;/u&gt;" style="ellipse;whiteSpace=wrap;html=1;" parent="WIyWlLk6GJQsqaUBKTNV-1" vertex="1">
          <mxGeometry x="-300" y="345" width="90" height="35" as="geometry" />
        </mxCell>
        <mxCell id="Ak_wFlDR8z4ldmzF6ij--59" value="sender" style="ellipse;whiteSpace=wrap;html=1;" parent="WIyWlLk6GJQsqaUBKTNV-1" vertex="1">
          <mxGeometry x="-195" y="345" width="90" height="35" as="geometry" />
        </mxCell>
        <mxCell id="Ak_wFlDR8z4ldmzF6ij--60" value="subject" style="ellipse;whiteSpace=wrap;html=1;" parent="WIyWlLk6GJQsqaUBKTNV-1" vertex="1">
          <mxGeometry x="-130" y="395" width="90" height="35" as="geometry" />
        </mxCell>
        <mxCell id="Ak_wFlDR8z4ldmzF6ij--61" value="body" style="ellipse;whiteSpace=wrap;html=1;" parent="WIyWlLk6GJQsqaUBKTNV-1" vertex="1">
          <mxGeometry x="-130" y="455" width="90" height="35" as="geometry" />
        </mxCell>
        <mxCell id="Ak_wFlDR8z4ldmzF6ij--62" value="&lt;b&gt;&lt;u&gt;recipient&lt;/u&gt;&lt;/b&gt;" style="ellipse;whiteSpace=wrap;html=1;" parent="WIyWlLk6GJQsqaUBKTNV-1" vertex="1">
          <mxGeometry x="-400" y="380" width="90" height="35" as="geometry" />
        </mxCell>
        <mxCell id="Ak_wFlDR8z4ldmzF6ij--63" value="" style="endArrow=none;html=1;rounded=0;" parent="WIyWlLk6GJQsqaUBKTNV-1" source="Ak_wFlDR8z4ldmzF6ij--48" target="Ak_wFlDR8z4ldmzF6ij--62" edge="1">
          <mxGeometry width="50" height="50" relative="1" as="geometry">
            <mxPoint x="-410" y="465" as="sourcePoint" />
            <mxPoint x="-360" y="415" as="targetPoint" />
          </mxGeometry>
        </mxCell>
        <mxCell id="Ak_wFlDR8z4ldmzF6ij--64" value="" style="endArrow=none;html=1;rounded=0;" parent="WIyWlLk6GJQsqaUBKTNV-1" source="Ak_wFlDR8z4ldmzF6ij--58" target="Ak_wFlDR8z4ldmzF6ij--48" edge="1">
          <mxGeometry width="50" height="50" relative="1" as="geometry">
            <mxPoint x="-410" y="465" as="sourcePoint" />
            <mxPoint x="-360" y="415" as="targetPoint" />
          </mxGeometry>
        </mxCell>
        <mxCell id="Ak_wFlDR8z4ldmzF6ij--65" value="" style="endArrow=none;html=1;rounded=0;" parent="WIyWlLk6GJQsqaUBKTNV-1" source="Ak_wFlDR8z4ldmzF6ij--59" target="Ak_wFlDR8z4ldmzF6ij--48" edge="1">
          <mxGeometry width="50" height="50" relative="1" as="geometry">
            <mxPoint x="-410" y="465" as="sourcePoint" />
            <mxPoint x="-360" y="415" as="targetPoint" />
          </mxGeometry>
        </mxCell>
        <mxCell id="Ak_wFlDR8z4ldmzF6ij--66" value="" style="endArrow=none;html=1;rounded=0;" parent="WIyWlLk6GJQsqaUBKTNV-1" source="Ak_wFlDR8z4ldmzF6ij--60" target="Ak_wFlDR8z4ldmzF6ij--48" edge="1">
          <mxGeometry width="50" height="50" relative="1" as="geometry">
            <mxPoint x="-410" y="465" as="sourcePoint" />
            <mxPoint x="-360" y="415" as="targetPoint" />
          </mxGeometry>
        </mxCell>
        <mxCell id="Ak_wFlDR8z4ldmzF6ij--67" value="" style="endArrow=none;html=1;rounded=0;" parent="WIyWlLk6GJQsqaUBKTNV-1" source="Ak_wFlDR8z4ldmzF6ij--61" target="Ak_wFlDR8z4ldmzF6ij--48" edge="1">
          <mxGeometry width="50" height="50" relative="1" as="geometry">
            <mxPoint x="-410" y="465" as="sourcePoint" />
            <mxPoint x="-360" y="415" as="targetPoint" />
          </mxGeometry>
        </mxCell>
        <mxCell id="Ak_wFlDR8z4ldmzF6ij--70" value="type" style="ellipse;whiteSpace=wrap;html=1;" parent="WIyWlLk6GJQsqaUBKTNV-1" vertex="1">
          <mxGeometry x="-20" y="475" width="90" height="35" as="geometry" />
        </mxCell>
        <mxCell id="_py4UkBO7gYFsBw7f4LY-1" value="&lt;b&gt;&lt;u&gt;Id&lt;/u&gt;&lt;/b&gt;" style="ellipse;whiteSpace=wrap;html=1;" parent="WIyWlLk6GJQsqaUBKTNV-1" vertex="1">
          <mxGeometry x="-15" y="1072" width="90" height="35" as="geometry" />
        </mxCell>
        <mxCell id="_py4UkBO7gYFsBw7f4LY-3" value="" style="endArrow=none;html=1;rounded=0;entryX=1;entryY=0.5;entryDx=0;entryDy=0;exitX=0;exitY=0.5;exitDx=0;exitDy=0;" parent="WIyWlLk6GJQsqaUBKTNV-1" source="nEtOkZ7gd0ag-XSUoiwr-59" target="_py4UkBO7gYFsBw7f4LY-1" edge="1">
          <mxGeometry width="50" height="50" relative="1" as="geometry">
            <mxPoint x="205" y="1132" as="sourcePoint" />
            <mxPoint x="255" y="1082" as="targetPoint" />
          </mxGeometry>
        </mxCell>
        <mxCell id="_py4UkBO7gYFsBw7f4LY-4" value="LocationPhone" style="rounded=0;whiteSpace=wrap;html=1;" parent="WIyWlLk6GJQsqaUBKTNV-1" vertex="1">
          <mxGeometry x="351" y="542" width="126" height="42.5" as="geometry" />
        </mxCell>
        <mxCell id="_py4UkBO7gYFsBw7f4LY-7" value="&lt;u&gt;PhoneNumber&lt;/u&gt;" style="ellipse;whiteSpace=wrap;html=1;fontStyle=1" parent="WIyWlLk6GJQsqaUBKTNV-1" vertex="1">
          <mxGeometry x="369" y="495" width="90" height="35" as="geometry" />
        </mxCell>
        <mxCell id="_py4UkBO7gYFsBw7f4LY-9" value="" style="endArrow=none;html=1;rounded=0;" parent="WIyWlLk6GJQsqaUBKTNV-1" source="_py4UkBO7gYFsBw7f4LY-4" target="_py4UkBO7gYFsBw7f4LY-7" edge="1">
          <mxGeometry width="50" height="50" relative="1" as="geometry">
            <mxPoint x="360" y="515" as="sourcePoint" />
            <mxPoint x="410" y="465" as="targetPoint" />
          </mxGeometry>
        </mxCell>
        <mxCell id="_py4UkBO7gYFsBw7f4LY-10" value="&lt;b&gt;&lt;u&gt;Id&lt;/u&gt;&lt;/b&gt;" style="ellipse;whiteSpace=wrap;html=1;" parent="WIyWlLk6GJQsqaUBKTNV-1" vertex="1">
          <mxGeometry x="459" y="275" width="90" height="35" as="geometry" />
        </mxCell>
        <mxCell id="_py4UkBO7gYFsBw7f4LY-11" value="" style="endArrow=none;html=1;rounded=0;" parent="WIyWlLk6GJQsqaUBKTNV-1" source="nEtOkZ7gd0ag-XSUoiwr-23" target="_py4UkBO7gYFsBw7f4LY-10" edge="1">
          <mxGeometry width="50" height="50" relative="1" as="geometry">
            <mxPoint x="420" y="420" as="sourcePoint" />
            <mxPoint x="470" y="370" as="targetPoint" />
          </mxGeometry>
        </mxCell>
        <mxCell id="_py4UkBO7gYFsBw7f4LY-12" value="&lt;b&gt;&lt;u&gt;Id&lt;/u&gt;&lt;/b&gt;" style="ellipse;whiteSpace=wrap;html=1;" parent="WIyWlLk6GJQsqaUBKTNV-1" vertex="1">
          <mxGeometry x="840" y="1260.87" width="90" height="35" as="geometry" />
        </mxCell>
        <mxCell id="_py4UkBO7gYFsBw7f4LY-13" value="" style="endArrow=none;html=1;rounded=0;" parent="WIyWlLk6GJQsqaUBKTNV-1" source="_py4UkBO7gYFsBw7f4LY-12" target="Ak_wFlDR8z4ldmzF6ij--2" edge="1">
          <mxGeometry width="50" height="50" relative="1" as="geometry">
            <mxPoint x="590" y="1257.6200000000001" as="sourcePoint" />
            <mxPoint x="640" y="1207.6200000000001" as="targetPoint" />
          </mxGeometry>
        </mxCell>
        <mxCell id="_py4UkBO7gYFsBw7f4LY-17" value="" style="endArrow=none;html=1;rounded=0;entryX=1;entryY=0.5;entryDx=0;entryDy=0;exitX=0.5;exitY=0;exitDx=0;exitDy=0;" parent="WIyWlLk6GJQsqaUBKTNV-1" source="nEtOkZ7gd0ag-XSUoiwr-0" target="_py4UkBO7gYFsBw7f4LY-0" edge="1">
          <mxGeometry width="50" height="50" relative="1" as="geometry">
            <mxPoint x="180" y="660" as="sourcePoint" />
            <mxPoint x="360" y="670" as="targetPoint" />
          </mxGeometry>
        </mxCell>
        <mxCell id="_py4UkBO7gYFsBw7f4LY-18" value="progressReport" style="ellipse;whiteSpace=wrap;html=1;" parent="WIyWlLk6GJQsqaUBKTNV-1" vertex="1">
          <mxGeometry x="400" y="1433.1200000000001" width="90" height="35" as="geometry" />
        </mxCell>
        <mxCell id="_py4UkBO7gYFsBw7f4LY-19" value="" style="endArrow=none;html=1;rounded=0;exitX=0.956;exitY=0.171;exitDx=0;exitDy=0;entryX=0.183;entryY=1.1;entryDx=0;entryDy=0;entryPerimeter=0;exitPerimeter=0;" parent="WIyWlLk6GJQsqaUBKTNV-1" source="_py4UkBO7gYFsBw7f4LY-18" target="nEtOkZ7gd0ag-XSUoiwr-106" edge="1">
          <mxGeometry width="50" height="50" relative="1" as="geometry">
            <mxPoint x="390" y="1298.1200000000001" as="sourcePoint" />
            <mxPoint x="440" y="1248.1200000000001" as="targetPoint" />
          </mxGeometry>
        </mxCell>
        <mxCell id="_py4UkBO7gYFsBw7f4LY-22" value="Home" style="rhombus;whiteSpace=wrap;html=1;" parent="WIyWlLk6GJQsqaUBKTNV-1" vertex="1">
          <mxGeometry x="240" y="602.5" width="90" height="50" as="geometry" />
        </mxCell>
        <mxCell id="_py4UkBO7gYFsBw7f4LY-23" value="Has" style="rhombus;whiteSpace=wrap;html=1;" parent="WIyWlLk6GJQsqaUBKTNV-1" vertex="1">
          <mxGeometry x="250" y="608.75" width="70" height="37.5" as="geometry" />
        </mxCell>
        <mxCell id="_py4UkBO7gYFsBw7f4LY-24" value="LocationPhone" style="rounded=0;whiteSpace=wrap;html=1;" parent="WIyWlLk6GJQsqaUBKTNV-1" vertex="1">
          <mxGeometry x="359" y="545.75" width="110" height="35" as="geometry" />
        </mxCell>
        <mxCell id="_py4UkBO7gYFsBw7f4LY-26" value="" style="endArrow=none;html=1;rounded=0;" parent="WIyWlLk6GJQsqaUBKTNV-1" source="_py4UkBO7gYFsBw7f4LY-22" target="_py4UkBO7gYFsBw7f4LY-4" edge="1">
          <mxGeometry width="50" height="50" relative="1" as="geometry">
            <mxPoint x="290" y="600" as="sourcePoint" />
            <mxPoint x="355" y="560" as="targetPoint" />
          </mxGeometry>
        </mxCell>
        <mxCell id="_py4UkBO7gYFsBw7f4LY-30" value="" style="endArrow=none;html=1;rounded=0;startArrow=classic;startFill=1;" parent="WIyWlLk6GJQsqaUBKTNV-1" target="_py4UkBO7gYFsBw7f4LY-22" edge="1" source="nEtOkZ7gd0ag-XSUoiwr-0">
          <mxGeometry width="50" height="50" relative="1" as="geometry">
            <mxPoint x="215" y="671.25" as="sourcePoint" />
            <mxPoint x="265" y="621.25" as="targetPoint" />
          </mxGeometry>
        </mxCell>
        <mxCell id="E964jHxX6daHCzThb7yl-14" value="&lt;b&gt;&lt;u&gt;Id&lt;/u&gt;&lt;/b&gt;" style="ellipse;whiteSpace=wrap;html=1;" parent="WIyWlLk6GJQsqaUBKTNV-1" vertex="1">
          <mxGeometry x="630" y="930.12" width="90" height="35" as="geometry" />
        </mxCell>
        <mxCell id="E964jHxX6daHCzThb7yl-16" value="" style="endArrow=none;html=1;rounded=0;" parent="WIyWlLk6GJQsqaUBKTNV-1" target="E964jHxX6daHCzThb7yl-14" edge="1" source="Ak_wFlDR8z4ldmzF6ij--21">
          <mxGeometry width="50" height="50" relative="1" as="geometry">
            <mxPoint x="610" y="946.37" as="sourcePoint" />
            <mxPoint x="650" y="918.87" as="targetPoint" />
          </mxGeometry>
        </mxCell>
        <mxCell id="E964jHxX6daHCzThb7yl-26" value="" style="endArrow=none;html=1;rounded=0;exitX=0.5;exitY=0;exitDx=0;exitDy=0;entryX=0.5;entryY=1;entryDx=0;entryDy=0;" parent="WIyWlLk6GJQsqaUBKTNV-1" source="Ak_wFlDR8z4ldmzF6ij--22" target="Ak_wFlDR8z4ldmzF6ij--21" edge="1">
          <mxGeometry width="50" height="50" relative="1" as="geometry">
            <mxPoint x="480" y="1068.8700000000001" as="sourcePoint" />
            <mxPoint x="549" y="988.87" as="targetPoint" />
            <Array as="points">
              <mxPoint x="550" y="1018.87" />
            </Array>
          </mxGeometry>
        </mxCell>
        <mxCell id="E964jHxX6daHCzThb7yl-27" value="assignmentDateTime" style="ellipse;whiteSpace=wrap;html=1;" parent="WIyWlLk6GJQsqaUBKTNV-1" vertex="1">
          <mxGeometry x="599" y="1090.0000000000002" width="90" height="35" as="geometry" />
        </mxCell>
        <mxCell id="E964jHxX6daHCzThb7yl-28" value="" style="endArrow=none;html=1;rounded=0;" parent="WIyWlLk6GJQsqaUBKTNV-1" source="Ak_wFlDR8z4ldmzF6ij--22" target="E964jHxX6daHCzThb7yl-27" edge="1">
          <mxGeometry width="50" height="50" relative="1" as="geometry">
            <mxPoint x="480" y="1068.8700000000001" as="sourcePoint" />
            <mxPoint x="530" y="1018.87" as="targetPoint" />
          </mxGeometry>
        </mxCell>
        <mxCell id="E964jHxX6daHCzThb7yl-30" value="isActive" style="ellipse;whiteSpace=wrap;html=1;" parent="WIyWlLk6GJQsqaUBKTNV-1" vertex="1">
          <mxGeometry x="610" y="1428.1200000000001" width="90" height="35" as="geometry" />
        </mxCell>
        <mxCell id="E964jHxX6daHCzThb7yl-31" value="" style="endArrow=none;html=1;rounded=0;entryX=0.825;entryY=0.95;entryDx=0;entryDy=0;entryPerimeter=0;" parent="WIyWlLk6GJQsqaUBKTNV-1" target="nEtOkZ7gd0ag-XSUoiwr-106" edge="1">
          <mxGeometry width="50" height="50" relative="1" as="geometry">
            <mxPoint x="610" y="1443.1200000000001" as="sourcePoint" />
            <mxPoint x="660" y="1393.1200000000001" as="targetPoint" />
          </mxGeometry>
        </mxCell>
        <mxCell id="ix6DuuSnNe8w2wpAc-xp-0" value="primaryRelation" style="ellipse;whiteSpace=wrap;html=1;" parent="WIyWlLk6GJQsqaUBKTNV-1" vertex="1">
          <mxGeometry x="400" y="1478.1200000000001" width="90" height="35" as="geometry" />
        </mxCell>
        <mxCell id="ix6DuuSnNe8w2wpAc-xp-2" value="secondaryRelation" style="ellipse;whiteSpace=wrap;html=1;" parent="WIyWlLk6GJQsqaUBKTNV-1" vertex="1">
          <mxGeometry x="400" y="1518.1200000000001" width="90" height="35" as="geometry" />
        </mxCell>
        <mxCell id="ix6DuuSnNe8w2wpAc-xp-3" value="" style="endArrow=none;html=1;rounded=0;entryX=0.117;entryY=0.95;entryDx=0;entryDy=0;entryPerimeter=0;" parent="WIyWlLk6GJQsqaUBKTNV-1" target="nEtOkZ7gd0ag-XSUoiwr-106" edge="1">
          <mxGeometry width="50" height="50" relative="1" as="geometry">
            <mxPoint x="490" y="1493.1200000000001" as="sourcePoint" />
            <mxPoint x="540" y="1443.1200000000001" as="targetPoint" />
          </mxGeometry>
        </mxCell>
        <mxCell id="ix6DuuSnNe8w2wpAc-xp-4" value="" style="endArrow=none;html=1;rounded=0;" parent="WIyWlLk6GJQsqaUBKTNV-1" edge="1">
          <mxGeometry width="50" height="50" relative="1" as="geometry">
            <mxPoint x="490" y="1543.1200000000001" as="sourcePoint" />
            <mxPoint x="510" y="1248.1200000000001" as="targetPoint" />
          </mxGeometry>
        </mxCell>
        <mxCell id="1uifHmMlCwWf6eMS7t70-0" value="start_date" style="ellipse;whiteSpace=wrap;html=1;" parent="WIyWlLk6GJQsqaUBKTNV-1" vertex="1">
          <mxGeometry x="60" y="871.25" width="90" height="35" as="geometry" />
        </mxCell>
        <mxCell id="1uifHmMlCwWf6eMS7t70-1" value="end_date" style="ellipse;whiteSpace=wrap;html=1;" parent="WIyWlLk6GJQsqaUBKTNV-1" vertex="1">
          <mxGeometry x="60" y="921.37" width="90" height="35" as="geometry" />
        </mxCell>
        <mxCell id="1uifHmMlCwWf6eMS7t70-2" value="" style="endArrow=none;html=1;rounded=0;" parent="WIyWlLk6GJQsqaUBKTNV-1" source="1uifHmMlCwWf6eMS7t70-1" target="nEtOkZ7gd0ag-XSUoiwr-81" edge="1">
          <mxGeometry width="50" height="50" relative="1" as="geometry">
            <mxPoint x="290" y="950" as="sourcePoint" />
            <mxPoint x="340" y="900" as="targetPoint" />
          </mxGeometry>
        </mxCell>
        <mxCell id="1uifHmMlCwWf6eMS7t70-3" value="" style="endArrow=none;html=1;rounded=0;" parent="WIyWlLk6GJQsqaUBKTNV-1" edge="1" target="nEtOkZ7gd0ag-XSUoiwr-81" source="1uifHmMlCwWf6eMS7t70-0">
          <mxGeometry width="50" height="50" relative="1" as="geometry">
            <mxPoint x="110" y="952.5" as="sourcePoint" />
            <mxPoint x="130" y="910" as="targetPoint" />
          </mxGeometry>
        </mxCell>
        <mxCell id="1uifHmMlCwWf6eMS7t70-4" value="&lt;div&gt;primary_relationship&lt;/div&gt;&lt;div&gt;_type&lt;/div&gt;" style="ellipse;whiteSpace=wrap;html=1;" parent="WIyWlLk6GJQsqaUBKTNV-1" vertex="1">
          <mxGeometry x="-115" y="927.62" width="90" height="35" as="geometry" />
        </mxCell>
        <mxCell id="1uifHmMlCwWf6eMS7t70-6" value="" style="endArrow=none;html=1;rounded=0;" parent="WIyWlLk6GJQsqaUBKTNV-1" target="nEtOkZ7gd0ag-XSUoiwr-93" edge="1" source="1uifHmMlCwWf6eMS7t70-4">
          <mxGeometry width="50" height="50" relative="1" as="geometry">
            <mxPoint x="-130" y="990.62" as="sourcePoint" />
            <mxPoint x="-80" y="940.62" as="targetPoint" />
          </mxGeometry>
        </mxCell>
        <mxCell id="A3gkDtnCZg2_mEMA7PSZ-2" value="Practices" style="rhombus;whiteSpace=wrap;html=1;" vertex="1" parent="WIyWlLk6GJQsqaUBKTNV-1">
          <mxGeometry x="229" y="846.25" width="90" height="50" as="geometry" />
        </mxCell>
        <mxCell id="A3gkDtnCZg2_mEMA7PSZ-5" value="" style="endArrow=none;html=1;rounded=0;" edge="1" parent="WIyWlLk6GJQsqaUBKTNV-1" source="A3gkDtnCZg2_mEMA7PSZ-2" target="nEtOkZ7gd0ag-XSUoiwr-0">
          <mxGeometry width="50" height="50" relative="1" as="geometry">
            <mxPoint x="80" y="828" as="sourcePoint" />
            <mxPoint x="190" y="720" as="targetPoint" />
          </mxGeometry>
        </mxCell>
        <mxCell id="A3gkDtnCZg2_mEMA7PSZ-10" value="start_date" style="ellipse;whiteSpace=wrap;html=1;" vertex="1" parent="WIyWlLk6GJQsqaUBKTNV-1">
          <mxGeometry x="274" y="811.25" width="90" height="35" as="geometry" />
        </mxCell>
        <mxCell id="A3gkDtnCZg2_mEMA7PSZ-11" value="end_date" style="ellipse;whiteSpace=wrap;html=1;" vertex="1" parent="WIyWlLk6GJQsqaUBKTNV-1">
          <mxGeometry x="329" y="846.25" width="90" height="35" as="geometry" />
        </mxCell>
        <mxCell id="A3gkDtnCZg2_mEMA7PSZ-12" value="" style="endArrow=none;html=1;rounded=0;" edge="1" parent="WIyWlLk6GJQsqaUBKTNV-1" source="A3gkDtnCZg2_mEMA7PSZ-11" target="A3gkDtnCZg2_mEMA7PSZ-2">
          <mxGeometry width="50" height="50" relative="1" as="geometry">
            <mxPoint x="497.5" y="1034.38" as="sourcePoint" />
            <mxPoint x="369.5" y="1009.38" as="targetPoint" />
          </mxGeometry>
        </mxCell>
        <mxCell id="A3gkDtnCZg2_mEMA7PSZ-13" value="" style="endArrow=none;html=1;rounded=0;" edge="1" parent="WIyWlLk6GJQsqaUBKTNV-1" source="A3gkDtnCZg2_mEMA7PSZ-10" target="A3gkDtnCZg2_mEMA7PSZ-2">
          <mxGeometry width="50" height="50" relative="1" as="geometry">
            <mxPoint x="317.5" y="1036.88" as="sourcePoint" />
            <mxPoint x="355.5" y="1001.38" as="targetPoint" />
          </mxGeometry>
        </mxCell>
        <mxCell id="A3gkDtnCZg2_mEMA7PSZ-14" value="Captain" style="rhombus;whiteSpace=wrap;html=1;" vertex="1" parent="WIyWlLk6GJQsqaUBKTNV-1">
          <mxGeometry x="310" y="1036.37" width="90" height="50" as="geometry" />
        </mxCell>
        <mxCell id="A3gkDtnCZg2_mEMA7PSZ-16" value="" style="endArrow=none;html=1;rounded=0;" edge="1" parent="WIyWlLk6GJQsqaUBKTNV-1" source="A3gkDtnCZg2_mEMA7PSZ-14" target="Ak_wFlDR8z4ldmzF6ij--21">
          <mxGeometry width="50" height="50" relative="1" as="geometry">
            <mxPoint x="274" y="862" as="sourcePoint" />
            <mxPoint x="200" y="720" as="targetPoint" />
          </mxGeometry>
        </mxCell>
        <mxCell id="A3gkDtnCZg2_mEMA7PSZ-17" value="" style="endArrow=open;html=1;rounded=0;endFill=0;" edge="1" parent="WIyWlLk6GJQsqaUBKTNV-1" source="A3gkDtnCZg2_mEMA7PSZ-14" target="nEtOkZ7gd0ag-XSUoiwr-59">
          <mxGeometry width="50" height="50" relative="1" as="geometry">
            <mxPoint x="348" y="1029.37" as="sourcePoint" />
            <mxPoint x="200" y="956.37" as="targetPoint" />
          </mxGeometry>
        </mxCell>
        <mxCell id="A3gkDtnCZg2_mEMA7PSZ-18" value="" style="endArrow=none;html=1;rounded=0;" edge="1" parent="WIyWlLk6GJQsqaUBKTNV-1" source="nEtOkZ7gd0ag-XSUoiwr-106" target="A3gkDtnCZg2_mEMA7PSZ-2">
          <mxGeometry width="50" height="50" relative="1" as="geometry">
            <mxPoint x="195" y="1151" as="sourcePoint" />
            <mxPoint x="190" y="945" as="targetPoint" />
          </mxGeometry>
        </mxCell>
        <mxCell id="A3gkDtnCZg2_mEMA7PSZ-19" value="" style="endArrow=none;html=1;rounded=0;" edge="1" parent="WIyWlLk6GJQsqaUBKTNV-1" source="Ak_wFlDR8z4ldmzF6ij--21" target="Ak_wFlDR8z4ldmzF6ij--23">
          <mxGeometry width="50" height="50" relative="1" as="geometry">
            <mxPoint x="274" y="862" as="sourcePoint" />
            <mxPoint x="200" y="720" as="targetPoint" />
          </mxGeometry>
        </mxCell>
      </root>
    </mxGraphModel>
  </diagram>
</mxfile>
